# xmcd
#
# Track frame offsets:
#	150
#	36681
#	50939
#	64378
#	75853
#	93705
#	106636
#	119069
#	133466
#	161478
#	174503
#	188155
#	202127
#	221282
#	233234
#	253632
#	276911
#	293262
#	313242
#	329353
#
# Disc length: 4532 seconds
#
# Revision: 0
# Processed by: cddbd v1.5.2PL0 Copyright (c) Steve Scherf et al.
# Submitted via: dBpowerAMP V4.0
#
DISCID=3811b214
DTITLE=Various Artist - Invictus Box Set CD 2
DYEAR=1900
DGENRE=Soul
TTITLE0=Ruth Copeland - Gimme Shelter
TTITLE1=Chairmen Of The Board - Life and Death
TTITLE2=Parliament - Come In Out Of The Rain
TTITLE3=Freda Payne - Unhooked Generation
TTITLE4=Natural High - Bump Your Lady
TTITLE5=Politicians - Free Your Mind
TTITLE6=Rachel Wynglas - Bar B Q Ribs
TTITLE7=Harrison Kennedy - Sunday Morning People
TTITLE8=Lucifer (1) - Time Gonna Change Everything
TTITLE9=Charles Lee - Sittin On A Time Bomb (Waitin For The Hurt To Come)
TTITLE10=Laura Lee - I Need It Just As Bad As You
TTITLE11=Ember Flaming - Stop The World And Let Me Off
TTITLE12=Chairmen Of The Board - Hanging On To A Memory
TTITLE13=Smith Connection - I'm Bugging Your Phone
TTITLE14=The 8th Day - Cheba
TTITLE15=Freda Payne - Misery's Favourite Child
TTITLE16=Chairmen Of The Board - Chairmen Of The Board
TTITLE17=Parliament - I Call My Baby Pussycat
TTITLE18=New York Port Authority - I Got It
TTITLE19=Just Brothers - Sliced Tomatoes
EXTD=
EXTT0=
EXTT1=
EXTT2=
EXTT3=
EXTT4=
EXTT5=
EXTT6=
EXTT7=
EXTT8=
EXTT9=
EXTT10=
EXTT11=
EXTT12=
EXTT13=
EXTT14=
EXTT15=
EXTT16=
EXTT17=
EXTT18=
EXTT19=
PLAYORDER=
